<svg xmlns="http://www.w3.org/2000/svg" xmlns:xlink="http://www.w3.org/1999/xlink" width="55" height="55" viewBox="0 0 55 55">
  <defs>
    <style>
      .cls-1 {
        fill: #fff;
      }

      .cls-2 {
        fill: #1a94a4;
        stroke: #1a94a4;
      }

      .cls-3 {
        filter: url(#Ellipse_9);
      }
    </style>
    <filter id="Ellipse_9" x="0" y="0" width="55" height="55" filterUnits="userSpaceOnUse">
      <feOffset dy="2" input="SourceAlpha"/>
      <feGaussianBlur stdDeviation="2.5" result="blur"/>
      <feFlood flood-opacity="0.102"/>
      <feComposite operator="in" in2="blur"/>
      <feComposite in="SourceGraphic"/>
    </filter>
  </defs>
  <g id="Group_81" data-name="Group 81" transform="translate(-1582.5 -977.5)">
    <g class="cls-3" transform="matrix(1, 0, 0, 1, 1582.5, 977.5)">
      <circle id="Ellipse_9-2" data-name="Ellipse 9" class="cls-1" cx="20" cy="20" r="20" transform="translate(7.5 5.5)"/>
    </g>
    <path id="Path_309" data-name="Path 309" class="cls-2" d="M33.585,9.3a.454.454,0,0,0-.454.454v8.091H28.257V12.767a.454.454,0,0,0-.454-.454H24.246a.454.454,0,0,0-.454.454v5.238a.454.454,0,1,0,.908,0V13.222h2.649v4.625H18.918V6.731l7.106-5.695L33.3,6.867a.454.454,0,1,0,.568-.709L26.308.1a.454.454,0,0,0-.568,0L18.18,6.158a.454.454,0,0,0-.17.354V18.3a.454.454,0,0,0,.454.454h15.12a.454.454,0,0,0,.454-.454V9.756A.454.454,0,0,0,33.585,9.3Z" transform="translate(1583.86 992.518)"/>
  </g>
</svg>
