<svg xmlns="http://www.w3.org/2000/svg" width="40" height="40" viewBox="0 0 40 40">
  <defs>
    <style>
      .cls-1 {
        fill: #1a272f;
      }

      .cls-2 {
        fill: #fff;
        stroke: #fff;
      }
    </style>
  </defs>
  <g id="home_button" transform="translate(-135 -45)">
    <g id="Group_72" data-name="Group 72" transform="translate(-375 -55)">
      <circle id="Ellipse_11" data-name="Ellipse 11" class="cls-1" cx="20" cy="20" r="20" transform="translate(510 100)"/>
    </g>
    <g id="Group_77" data-name="Group 77" transform="translate(145.264 54.347)">
      <g id="Group_76" data-name="Group 76" transform="translate(2.805 4.357)">
        <path id="Path_327" data-name="Path 327" class="cls-2" d="M18.525,26.526H4.986a.3.3,0,0,1-.3-.3V17.853a.3.3,0,1,1,.6,0v8.075h12.94V17.853a.3.3,0,1,1,.6,0v8.374A.3.3,0,0,1,18.525,26.526Z" transform="translate(-4.687 -11.188)"/>
        <path id="Path_328" data-name="Path 328" class="cls-2" d="M18.523,13.894a.3.3,0,0,1-.205-.081L11.765,7.626l-6.55,6.187a.3.3,0,1,1-.411-.435L11.56,7a.3.3,0,0,1,.411,0l6.758,6.381a.3.3,0,0,1-.206.516Z" transform="translate(-4.696 -6.915)"/>
      </g>
      <path id="Path_329" data-name="Path 329" class="cls-2" d="M19.448,10.09a.3.3,0,0,1-.206-.081L9.874,1.162.505,10.008a.3.3,0,0,1-.411-.436L9.668.532a.3.3,0,0,1,.412,0l9.574,9.04a.3.3,0,0,1-.206.517Z" transform="translate(0 -1)"/>
      <path id="Path_330" data-name="Path 330" class="cls-2" d="M17.085,27.795H12.309a.3.3,0,0,1-.3-.3V21.012a.3.3,0,0,1,.3-.3h4.776a.3.3,0,0,1,.3.3V27.5A.3.3,0,0,1,17.085,27.795Zm-4.477-.6h4.177V21.311H12.608Z" transform="translate(-4.823 -8.1)"/>
    </g>
  </g>
</svg>
