<svg xmlns="http://www.w3.org/2000/svg" width="16.278" height="15.669" viewBox="0 0 16.278 15.669">
  <defs>
    <style>
      .cls-1 {
        fill: #fff;
      }
    </style>
  </defs>
  <g id="icon_1" transform="translate(0 -0.667)">
    <path id="Path_312" data-name="Path 312" class="cls-1" d="M15.137,16.336h-14a1.141,1.141,0,0,1,0-2.282h14a1.141,1.141,0,0,1,0,2.282Zm1.141-4.488a1.141,1.141,0,0,0-1.141-1.141H8.9a1.141,1.141,0,1,0,0,2.282h6.237A1.141,1.141,0,0,0,16.278,11.848Zm0-3.346a1.141,1.141,0,0,0-1.141-1.141h-14a1.141,1.141,0,1,0,0,2.282h14A1.141,1.141,0,0,0,16.278,8.5Zm0-3.347a1.141,1.141,0,0,0-1.141-1.141H8.9A1.141,1.141,0,0,0,8.9,6.3h6.237A1.141,1.141,0,0,0,16.278,5.155Zm0-3.347A1.141,1.141,0,0,0,15.137.667h-14a1.141,1.141,0,0,0,0,2.282h14A1.141,1.141,0,0,0,16.278,1.808Z"/>
  </g>
</svg>
