<svg xmlns="http://www.w3.org/2000/svg" width="23.02" height="17.14" viewBox="0 0 23.02 17.14">
  <defs>
    <style>
      .cls-1 {
        fill: #fff;
      }
    </style>
  </defs>
  <g id="icon_2" transform="translate(0 -26.609)">
    <g id="Group_63" data-name="Group 63" transform="translate(0 26.609)">
      <g id="Group_62" data-name="Group 62" transform="translate(0 0)">
        <path id="Path_311" data-name="Path 311" class="cls-1" d="M23.02,31.893h-.607l.01-1.424c-.719-2.767-6.51-6.238-10.769-1.561V28.9c-.084.1-.146.157-.146.157a1.991,1.991,0,0,1-.146-.157V28.9C7.106,24.228,1.315,27.7.6,30.467L.6,31.89l-.6,0V43.749c14.133-.076,8.884-.076,23.02,0ZM4.16,41.321A4.547,4.547,0,0,1,8.831,41.3Zm-1.905-.57L2.2,30.685c2-3.114,6.058-3.51,8.535-.031l.056,10.094A6.27,6.27,0,0,0,2.255,40.752Zm11.934.544a4.558,4.558,0,0,1,4.669.026Zm6.575-.544a6.27,6.27,0,0,0-8.534,0l.057-10.094c2.477-3.48,6.538-3.082,8.534.031Z" transform="translate(0 -26.609)"/>
      </g>
    </g>
  </g>
</svg>
