<svg xmlns="http://www.w3.org/2000/svg" width="15.209" height="20.975" viewBox="0 0 15.209 20.975">
  <defs>
    <style>
      .cls-1 {
        fill: #fff;
      }
    </style>
  </defs>
  <path id="icon_4" class="cls-1" d="M93.765,13.438v4.628h1.383l.015-.548a3.457,3.457,0,1,0,6.913,0l-.015.548h1.383V13.438A7.524,7.524,0,0,0,106.209,7.6,7.6,7.6,0,0,0,91,7.6,7.524,7.524,0,0,0,93.765,13.438Zm4.855,6.154a2.078,2.078,0,0,1-1.955-1.383h3.91A2.077,2.077,0,0,1,98.62,19.593Zm2.074-2.765H96.546l-.015,1.239h4.148Zm-5.546-.143V15.209h6.913v1.475ZM98.6,1.383A6.229,6.229,0,0,1,104.827,7.6a6.167,6.167,0,0,1-2.491,4.948l-.275.207v1.067h-1.383V9.56A2.074,2.074,0,1,0,99.3,7.6v6.222H97.913V7.6A2.075,2.075,0,1,0,96.531,9.56v4.267H95.148V12.76l-.275-.207A6.167,6.167,0,0,1,92.383,7.6,6.229,6.229,0,0,1,98.6,1.383ZM100.679,7.6a.691.691,0,1,1,.691.691A.692.692,0,0,1,100.679,7.6Zm-4.148,0a.691.691,0,1,1-.691-.691A.692.692,0,0,1,96.531,7.6Z" transform="translate(-91)"/>
</svg>
