<svg xmlns="http://www.w3.org/2000/svg" xmlns:xlink="http://www.w3.org/1999/xlink" width="312.321" height="312.321" viewBox="0 0 312.321 312.321">
  <defs>
    <style>
      .cls-1 {
        fill: #ffc65a;
        stroke: #fff;
        stroke-width: 5px;
      }

      .cls-2 {
        fill: #1a272f;
      }

      .cls-3 {
        filter: url(#Path_321);
      }
    </style>
    <filter id="Path_321" x="0" y="0" width="312.321" height="312.321" filterUnits="userSpaceOnUse">
      <feOffset dy="3" input="SourceAlpha"/>
      <feGaussianBlur stdDeviation="3" result="blur"/>
      <feFlood flood-opacity="0.098"/>
      <feComposite operator="in" in2="blur"/>
      <feComposite in="SourceGraphic"/>
    </filter>
  </defs>
  <g id="main_icon" transform="translate(12.536 9.536)">
    <g class="cls-3" transform="matrix(1, 0, 0, 1, -12.54, -9.54)">
      <path id="Path_321-2" data-name="Path 321" class="cls-1" d="M244.163,186.712l43.087-43.087-43.087-43.088V43.088h-57.45L143.625,0,100.537,43.088H43.088v57.45L0,143.625l43.088,43.087v57.45h57.45l43.088,43.087,43.087-43.087h57.45Z" transform="translate(12.54 9.54)"/>
    </g>
    <g id="Group_73" data-name="Group 73" transform="translate(20.313 20.313)">
      <path id="Path_322" data-name="Path 322" class="cls-2" d="M243.431,120.119V71.081H194.392L157.256,33.944,120.119,71.081H71.081v49.038L33.944,157.256l37.137,37.137v49.038h49.038l37.137,37.137,37.137-37.137h49.038V194.392l9.814-9.814-6.77-6.77-12.62,12.62v43.427H205.131V168.64a41.982,41.982,0,0,0,9.575-25.752c0-16.718-13.448-26.159-29.687-35.921-22.2-13.352-22.97-26.274-22.975-26.312l-9.575-.091c0,.129-.771,13.051-22.975,26.4-16.239,9.762-29.687,19.207-29.687,35.925a41.983,41.983,0,0,0,9.575,25.752v65.211H80.656V190.428L47.483,157.256l33.173-33.173V80.656h43.427l33.173-33.173,33.173,33.173h43.427v43.427l33.173,33.173-12.62,12.62,6.77,6.77,19.389-19.389ZM142.893,252.666V224.281a14.362,14.362,0,1,1,28.725,0v28.385l-14.362,14.362Zm-8.469-137.492c12.218-7.344,19.03-14.88,22.832-21.031,3.8,6.152,10.614,13.687,22.832,21.031,16.967,10.2,25.043,16.948,25.043,27.72a32.241,32.241,0,0,1-6.932,19.15H116.313a32.253,32.253,0,0,1-6.932-19.15C109.381,132.121,117.457,125.376,134.424,115.174Zm-15.468,75.595h57.45v-9.575h-57.45v-9.575h76.6v9.575h-9.575v9.575h9.575v43.087h-5.127l-9.235,9.235v-18.81a23.938,23.938,0,0,0-47.875,0v18.81l-9.235-9.235h-5.127Z" transform="translate(-33.944 -33.944)"/>
      <path id="Path_323" data-name="Path 323" class="cls-2" d="M201.38,190.6q1.35-.811,2.624-1.628l-5.142-8.077q-1.178.747-2.413,1.494c-13.75,8.268-19.447,13.51-20.337,18.7l9.427,1.661C185.7,202.224,187.224,199.112,201.38,190.6Z" transform="translate(-91.033 -92.954)"/>
      <path id="Path_324" data-name="Path 324" class="cls-2" d="M236.776,172.522l-6.434-7.09c-1.958,1.776-4.108,3.533-6.382,5.223l5.7,7.689C232.19,176.467,234.583,174.509,236.776,172.522Z" transform="translate(-110.247 -86.745)"/>
    </g>
  </g>
</svg>
